<svg xmlns="http://www.w3.org/2000/svg" width="1358" height="416"><defs><style>.a,.b{fill:#fff}.b{stroke:#000;stroke-miterlimit:10;stroke-width:4px}.c{fill:#29abe2}.d{fill:#006837}.e{fill:#d4145a}.f{fill:#754c24}.g{fill:#0071bc}.h{fill:#fbb03b}</style></defs><rect class="a" x="1" y="1" width="192" height="102" rx="19"/><path d="M174 2a18 18 0 0118 18v64a18 18 0 01-18 18H20A18 18 0 012 84V20A18 18 0 0120 2h154m0-2H20A20 20 0 000 20v64a20 20 0 0020 20h154a20 20 0 0020-20V20a20 20 0 00-20-20z"/><path class="b" d="M97 13v78"/><rect class="a" x="195" y="1" width="192" height="102" rx="19"/><path d="M368 2a18 18 0 0118 18v64a18 18 0 01-18 18H214a18 18 0 01-18-18V20a18 18 0 0118-18h154m0-2H214a20 20 0 00-20 20v64a20 20 0 0020 20h154a20 20 0 0020-20V20a20 20 0 00-20-20z"/><path class="b" d="M291 13v78"/><circle class="c" cx="339.5" cy="52" r="9"/><rect class="a" x="389" y="1" width="192" height="102" rx="19"/><path d="M562 2a18 18 0 0118 18v64a18 18 0 01-18 18H408a18 18 0 01-18-18V20a18 18 0 0118-18h154m0-2H408a20 20 0 00-20 20v64a20 20 0 0020 20h154a20 20 0 0020-20V20a20 20 0 00-20-20z"/><path class="b" d="M485 13v78"/><circle class="c" cx="436.5" cy="52" r="9"/><circle class="c" cx="533.5" cy="52" r="9"/><rect class="a" x="583" y="1" width="192" height="102" rx="19"/><path d="M756 2a18 18 0 0118 18v64a18 18 0 01-18 18H602a18 18 0 01-18-18V20a18 18 0 0118-18h154m0-2H602a20 20 0 00-20 20v64a20 20 0 0020 20h154a20 20 0 0020-20V20a20 20 0 00-20-20z"/><path class="b" d="M679 13v78"/><circle class="d" cx="757" cy="22" r="9"/><circle class="d" cx="698" cy="82" r="9"/><rect class="a" x="777" y="1" width="192" height="102" rx="19"/><path d="M950 2a18 18 0 0118 18v64a18 18 0 01-18 18H796a18 18 0 01-18-18V20a18 18 0 0118-18h154m0-2H796a20 20 0 00-20 20v64a20 20 0 0020 20h154a20 20 0 0020-20V20a20 20 0 00-20-20z"/><path class="b" d="M873 13v78"/><circle class="c" cx="824.5" cy="52" r="9"/><circle class="d" cx="951" cy="22" r="9"/><circle class="d" cx="892" cy="82" r="9"/><rect class="a" x="971" y="1" width="192" height="102" rx="19"/><path d="M1144 2a18 18 0 0118 18v64a18 18 0 01-18 18H990a18 18 0 01-18-18V20a18 18 0 0118-18h154m0-2H990a20 20 0 00-20 20v64a20 20 0 0020 20h154a20 20 0 0020-20V20a20 20 0 00-20-20z"/><path class="b" d="M1067 13v78"/><circle class="d" cx="1048" cy="22" r="9"/><circle class="d" cx="989" cy="82" r="9"/><circle class="d" cx="1145" cy="22" r="9"/><circle class="d" cx="1086" cy="82" r="9"/><rect class="a" x="1165" y="1" width="192" height="102" rx="19"/><path d="M1338 2a18 18 0 0118 18v64a18 18 0 01-18 18h-154a18 18 0 01-18-18V20a18 18 0 0118-18h154m0-2h-154a20 20 0 00-20 20v64a20 20 0 0020 20h154a20 20 0 0020-20V20a20 20 0 00-20-20z"/><path class="b" d="M1261 13v78"/><circle class="e" cx="1339" cy="22" r="9"/><circle class="e" cx="1280" cy="82" r="9"/><circle class="e" cx="1309.5" cy="52" r="9"/><rect class="a" x="1" y="105" width="192" height="102" rx="19"/><path d="M174 106a18 18 0 0118 18v64a18 18 0 01-18 18H20a18 18 0 01-18-18v-64a18 18 0 0118-18h154m0-2H20a20 20 0 00-20 20v64a20 20 0 0020 20h154a20 20 0 0020-20v-64a20 20 0 00-20-20z"/><path class="b" d="M97 117v78"/><circle class="c" cx="48.5" cy="156" r="9"/><circle class="e" cx="175" cy="126" r="9"/><circle class="e" cx="116" cy="186" r="9"/><circle class="e" cx="145.5" cy="156" r="9"/><rect class="a" x="195" y="105" width="192" height="102" rx="19"/><path d="M368 106a18 18 0 0118 18v64a18 18 0 01-18 18H214a18 18 0 01-18-18v-64a18 18 0 0118-18h154m0-2H214a20 20 0 00-20 20v64a20 20 0 0020 20h154a20 20 0 0020-20v-64a20 20 0 00-20-20z"/><path class="b" d="M291 117v78"/><circle class="d" cx="272" cy="126" r="9"/><circle class="d" cx="213" cy="186" r="9"/><circle class="e" cx="369" cy="126" r="9"/><circle class="e" cx="310" cy="186" r="9"/><circle class="e" cx="339.5" cy="156" r="9"/><rect class="a" x="389" y="105" width="192" height="102" rx="19"/><path d="M562 106a18 18 0 0118 18v64a18 18 0 01-18 18H408a18 18 0 01-18-18v-64a18 18 0 0118-18h154m0-2H408a20 20 0 00-20 20v64a20 20 0 0020 20h154a20 20 0 0020-20v-64a20 20 0 00-20-20z"/><path class="b" d="M485 117v78"/><circle class="e" cx="466" cy="126" r="9"/><circle class="e" cx="407" cy="186" r="9"/><circle class="e" cx="436.5" cy="156" r="9"/><circle class="e" cx="563" cy="126" r="9"/><circle class="e" cx="504" cy="186" r="9"/><circle class="e" cx="533.5" cy="156" r="9"/><rect class="a" x="583" y="105" width="192" height="102" rx="19"/><path d="M756 106a18 18 0 0118 18v64a18 18 0 01-18 18H602a18 18 0 01-18-18v-64a18 18 0 0118-18h154m0-2H602a20 20 0 00-20 20v64a20 20 0 0020 20h154a20 20 0 0020-20v-64a20 20 0 00-20-20z"/><path class="b" d="M679 117v78"/><circle class="f" cx="698" cy="126" r="9"/><circle class="f" cx="757" cy="126" r="9"/><circle class="f" cx="698" cy="186" r="9"/><circle class="f" cx="757" cy="186" r="9"/><rect class="a" x="777" y="105" width="192" height="102" rx="19"/><path d="M950 106a18 18 0 0118 18v64a18 18 0 01-18 18H796a18 18 0 01-18-18v-64a18 18 0 0118-18h154m0-2H796a20 20 0 00-20 20v64a20 20 0 0020 20h154a20 20 0 0020-20v-64a20 20 0 00-20-20z"/><path class="b" d="M873 117v78"/><circle class="c" cx="824.5" cy="156" r="9"/><circle class="f" cx="892" cy="126" r="9"/><circle class="f" cx="951" cy="126" r="9"/><circle class="f" cx="892" cy="186" r="9"/><circle class="f" cx="951" cy="186" r="9"/><rect class="a" x="971" y="105" width="192" height="102" rx="19"/><path d="M1144 106a18 18 0 0118 18v64a18 18 0 01-18 18H990a18 18 0 01-18-18v-64a18 18 0 0118-18h154m0-2H990a20 20 0 00-20 20v64a20 20 0 0020 20h154a20 20 0 0020-20v-64a20 20 0 00-20-20z"/><path class="b" d="M1067 117v78"/><circle class="d" cx="1048" cy="126" r="9"/><circle class="d" cx="989" cy="186" r="9"/><circle class="f" cx="1086" cy="126" r="9"/><circle class="f" cx="1145" cy="126" r="9"/><circle class="f" cx="1086" cy="186" r="9"/><circle class="f" cx="1145" cy="186" r="9"/><rect class="a" x="1165" y="105" width="192" height="102" rx="19"/><path d="M1338 106a18 18 0 0118 18v64a18 18 0 01-18 18h-154a18 18 0 01-18-18v-64a18 18 0 0118-18h154m0-2h-154a20 20 0 00-20 20v64a20 20 0 0020 20h154a20 20 0 0020-20v-64a20 20 0 00-20-20z"/><path class="b" d="M1261 117v78"/><circle class="e" cx="1242" cy="126" r="9"/><circle class="e" cx="1183" cy="186" r="9"/><circle class="e" cx="1212.5" cy="156" r="9"/><circle class="f" cx="1280" cy="126" r="9"/><circle class="f" cx="1339" cy="126" r="9"/><circle class="f" cx="1280" cy="186" r="9"/><circle class="f" cx="1339" cy="186" r="9"/><rect class="a" x="1" y="209" width="192" height="102" rx="19"/><path d="M174 210a18 18 0 0118 18v64a18 18 0 01-18 18H20a18 18 0 01-18-18v-64a18 18 0 0118-18h154m0-2H20a20 20 0 00-20 20v64a20 20 0 0020 20h154a20 20 0 0020-20v-64a20 20 0 00-20-20z"/><path class="b" d="M97 221v78"/><circle class="f" cx="19" cy="230" r="9"/><circle class="f" cx="78" cy="230" r="9"/><circle class="f" cx="19" cy="290" r="9"/><circle class="f" cx="78" cy="290" r="9"/><circle class="f" cx="116" cy="230" r="9"/><circle class="f" cx="175" cy="230" r="9"/><circle class="f" cx="116" cy="290" r="9"/><circle class="f" cx="175" cy="290" r="9"/><rect class="a" x="195" y="209" width="192" height="102" rx="19"/><path d="M368 210a18 18 0 0118 18v64a18 18 0 01-18 18H214a18 18 0 01-18-18v-64a18 18 0 0118-18h154m0-2H214a20 20 0 00-20 20v64a20 20 0 0020 20h154a20 20 0 0020-20v-64a20 20 0 00-20-20z"/><path class="b" d="M291 221v78"/><circle class="g" cx="310" cy="230" r="9"/><circle class="g" cx="369" cy="230" r="9"/><circle class="g" cx="310" cy="290" r="9"/><circle class="g" cx="369" cy="290" r="9"/><circle class="g" cx="339.5" cy="260" r="9"/><rect class="a" x="389" y="209" width="192" height="102" rx="19"/><path d="M562 210a18 18 0 0118 18v64a18 18 0 01-18 18H408a18 18 0 01-18-18v-64a18 18 0 0118-18h154m0-2H408a20 20 0 00-20 20v64a20 20 0 0020 20h154a20 20 0 0020-20v-64a20 20 0 00-20-20z"/><path class="b" d="M485 221v78"/><circle class="c" cx="436.5" cy="260" r="9"/><circle class="g" cx="504" cy="230" r="9"/><circle class="g" cx="563" cy="230" r="9"/><circle class="g" cx="504" cy="290" r="9"/><circle class="g" cx="563" cy="290" r="9"/><circle class="g" cx="533.5" cy="260" r="9"/><rect class="a" x="583" y="209" width="192" height="102" rx="19"/><path d="M756 210a18 18 0 0118 18v64a18 18 0 01-18 18H602a18 18 0 01-18-18v-64a18 18 0 0118-18h154m0-2H602a20 20 0 00-20 20v64a20 20 0 0020 20h154a20 20 0 0020-20v-64a20 20 0 00-20-20z"/><path class="b" d="M679 221v78"/><circle class="d" cx="660" cy="230" r="9"/><circle class="d" cx="601" cy="290" r="9"/><circle class="g" cx="698" cy="230" r="9"/><circle class="g" cx="757" cy="230" r="9"/><circle class="g" cx="698" cy="290" r="9"/><circle class="g" cx="757" cy="290" r="9"/><circle class="g" cx="727.5" cy="260" r="9"/><rect class="a" x="777" y="209" width="192" height="102" rx="19"/><path d="M950 210a18 18 0 0118 18v64a18 18 0 01-18 18H796a18 18 0 01-18-18v-64a18 18 0 0118-18h154m0-2H796a20 20 0 00-20 20v64a20 20 0 0020 20h154a20 20 0 0020-20v-64a20 20 0 00-20-20z"/><path class="b" d="M873 221v78"/><circle class="e" cx="854" cy="230" r="9"/><circle class="e" cx="795" cy="290" r="9"/><circle class="e" cx="824.5" cy="260" r="9"/><circle class="g" cx="892" cy="230" r="9"/><circle class="g" cx="951" cy="230" r="9"/><circle class="g" cx="892" cy="290" r="9"/><circle class="g" cx="951" cy="290" r="9"/><circle class="g" cx="921.5" cy="260" r="9"/><rect class="a" x="971" y="209" width="192" height="102" rx="19"/><path d="M1144 210a18 18 0 0118 18v64a18 18 0 01-18 18H990a18 18 0 01-18-18v-64a18 18 0 0118-18h154m0-2H990a20 20 0 00-20 20v64a20 20 0 0020 20h154a20 20 0 0020-20v-64a20 20 0 00-20-20z"/><path class="b" d="M1067 221v78"/><circle class="f" cx="989" cy="230" r="9"/><circle class="f" cx="1048" cy="230" r="9"/><circle class="f" cx="989" cy="290" r="9"/><circle class="f" cx="1048" cy="290" r="9"/><circle class="g" cx="1086" cy="230" r="9"/><circle class="g" cx="1145" cy="230" r="9"/><circle class="g" cx="1086" cy="290" r="9"/><circle class="g" cx="1145" cy="290" r="9"/><circle class="g" cx="1115.5" cy="260" r="9"/><rect class="a" x="1165" y="209" width="192" height="102" rx="19"/><path d="M1338 210a18 18 0 0118 18v64a18 18 0 01-18 18h-154a18 18 0 01-18-18v-64a18 18 0 0118-18h154m0-2h-154a20 20 0 00-20 20v64a20 20 0 0020 20h154a20 20 0 0020-20v-64a20 20 0 00-20-20z"/><path class="b" d="M1261 221v78"/><circle class="g" cx="1183" cy="230" r="9"/><circle class="g" cx="1242" cy="230" r="9"/><circle class="g" cx="1183" cy="290" r="9"/><circle class="g" cx="1242" cy="290" r="9"/><circle class="g" cx="1212.5" cy="260" r="9"/><circle class="g" cx="1280" cy="230" r="9"/><circle class="g" cx="1339" cy="230" r="9"/><circle class="g" cx="1280" cy="290" r="9"/><circle class="g" cx="1339" cy="290" r="9"/><circle class="g" cx="1309.5" cy="260" r="9"/><rect class="a" x="1" y="313" width="192" height="102" rx="19"/><path d="M174 314a18 18 0 0118 18v64a18 18 0 01-18 18H20a18 18 0 01-18-18v-64a18 18 0 0118-18h154m0-2H20a20 20 0 00-20 20v64a20 20 0 0020 20h154a20 20 0 0020-20v-64a20 20 0 00-20-20z"/><path class="b" d="M97 325v78"/><circle class="h" cx="116" cy="334" r="9"/><circle class="h" cx="145.5" cy="334" r="9"/><circle class="h" cx="175" cy="334" r="9"/><circle class="h" cx="116" cy="394" r="9"/><circle class="h" cx="145.5" cy="394" r="9"/><circle class="h" cx="175" cy="394" r="9"/><rect class="a" x="195" y="313" width="192" height="102" rx="19"/><path d="M368 314a18 18 0 0118 18v64a18 18 0 01-18 18H214a18 18 0 01-18-18v-64a18 18 0 0118-18h154m0-2H214a20 20 0 00-20 20v64a20 20 0 0020 20h154a20 20 0 0020-20v-64a20 20 0 00-20-20z"/><path class="b" d="M291 325v78"/><circle class="c" cx="242.5" cy="364" r="9"/><circle class="h" cx="310" cy="334" r="9"/><circle class="h" cx="339.5" cy="334" r="9"/><circle class="h" cx="369" cy="334" r="9"/><circle class="h" cx="310" cy="394" r="9"/><circle class="h" cx="339.5" cy="394" r="9"/><circle class="h" cx="369" cy="394" r="9"/><rect class="a" x="389" y="313" width="192" height="102" rx="19"/><path d="M562 314a18 18 0 0118 18v64a18 18 0 01-18 18H408a18 18 0 01-18-18v-64a18 18 0 0118-18h154m0-2H408a20 20 0 00-20 20v64a20 20 0 0020 20h154a20 20 0 0020-20v-64a20 20 0 00-20-20z"/><path class="b" d="M485 325v78"/><circle class="d" cx="466" cy="334" r="9"/><circle class="d" cx="407" cy="394" r="9"/><circle class="h" cx="504" cy="334" r="9"/><circle class="h" cx="533.5" cy="334" r="9"/><circle class="h" cx="563" cy="334" r="9"/><circle class="h" cx="504" cy="394" r="9"/><circle class="h" cx="533.5" cy="394" r="9"/><circle class="h" cx="563" cy="394" r="9"/><rect class="a" x="583" y="313" width="192" height="102" rx="19"/><path d="M756 314a18 18 0 0118 18v64a18 18 0 01-18 18H602a18 18 0 01-18-18v-64a18 18 0 0118-18h154m0-2H602a20 20 0 00-20 20v64a20 20 0 0020 20h154a20 20 0 0020-20v-64a20 20 0 00-20-20z"/><path class="b" d="M679 325v78"/><circle class="e" cx="660" cy="334" r="9"/><circle class="e" cx="601" cy="394" r="9"/><circle class="e" cx="630.5" cy="364" r="9"/><circle class="h" cx="698" cy="334" r="9"/><circle class="h" cx="727.5" cy="334" r="9"/><circle class="h" cx="757" cy="334" r="9"/><circle class="h" cx="698" cy="394" r="9"/><circle class="h" cx="727.5" cy="394" r="9"/><circle class="h" cx="757" cy="394" r="9"/><rect class="a" x="777" y="313" width="192" height="102" rx="19"/><path d="M950 314a18 18 0 0118 18v64a18 18 0 01-18 18H796a18 18 0 01-18-18v-64a18 18 0 0118-18h154m0-2H796a20 20 0 00-20 20v64a20 20 0 0020 20h154a20 20 0 0020-20v-64a20 20 0 00-20-20z"/><path class="b" d="M873 325v78"/><circle class="f" cx="795" cy="334" r="9"/><circle class="f" cx="854" cy="334" r="9"/><circle class="f" cx="795" cy="394" r="9"/><circle class="f" cx="854" cy="394" r="9"/><circle class="h" cx="892" cy="334" r="9"/><circle class="h" cx="921.5" cy="334" r="9"/><circle class="h" cx="951" cy="334" r="9"/><circle class="h" cx="892" cy="394" r="9"/><circle class="h" cx="921.5" cy="394" r="9"/><circle class="h" cx="951" cy="394" r="9"/><rect class="a" x="971" y="313" width="192" height="102" rx="19"/><path d="M1144 314a18 18 0 0118 18v64a18 18 0 01-18 18H990a18 18 0 01-18-18v-64a18 18 0 0118-18h154m0-2H990a20 20 0 00-20 20v64a20 20 0 0020 20h154a20 20 0 0020-20v-64a20 20 0 00-20-20z"/><path class="b" d="M1067 325v78"/><circle class="g" cx="989" cy="334" r="9"/><circle class="g" cx="1048" cy="334" r="9"/><circle class="g" cx="989" cy="394" r="9"/><circle class="g" cx="1048" cy="394" r="9"/><circle class="g" cx="1018.5" cy="364" r="9"/><circle class="h" cx="1086" cy="334" r="9"/><circle class="h" cx="1115.5" cy="334" r="9"/><circle class="h" cx="1145" cy="334" r="9"/><circle class="h" cx="1086" cy="394" r="9"/><circle class="h" cx="1115.5" cy="394" r="9"/><circle class="h" cx="1145" cy="394" r="9"/><rect class="a" x="1165" y="313" width="192" height="102" rx="19"/><path d="M1338 314a18 18 0 0118 18v64a18 18 0 01-18 18h-154a18 18 0 01-18-18v-64a18 18 0 0118-18h154m0-2h-154a20 20 0 00-20 20v64a20 20 0 0020 20h154a20 20 0 0020-20v-64a20 20 0 00-20-20z"/><path class="b" d="M1261 325v78"/><circle class="h" cx="1183" cy="334" r="9"/><circle class="h" cx="1212.5" cy="334" r="9"/><circle class="h" cx="1242" cy="334" r="9"/><circle class="h" cx="1183" cy="394" r="9"/><circle class="h" cx="1212.5" cy="394" r="9"/><circle class="h" cx="1242" cy="394" r="9"/><circle class="h" cx="1280" cy="334" r="9"/><circle class="h" cx="1309.5" cy="334" r="9"/><circle class="h" cx="1339" cy="334" r="9"/><circle class="h" cx="1280" cy="394" r="9"/><circle class="h" cx="1309.5" cy="394" r="9"/><circle class="h" cx="1339" cy="394" r="9"/></svg>